<?xml version="1.0" encoding="UTF-8"?>
<mxfile host="app.diagrams.net" agent="Mozilla/5.0 (Macintosh; Intel Mac OS X 10_15_7) AppleWebKit/537.36 (KHTML, like Gecko) Chrome/133.0.0.0 Safari/537.36" version="26.0.16">
  <diagram id="AvSlHrypiTH4BCyW6fsB" name="data_model">
    <mxGraphModel dx="954" dy="639" grid="1" gridSize="10" guides="1" tooltips="1" connect="1" arrows="1" fold="1" page="1" pageScale="1" pageWidth="2339" pageHeight="3300" math="0" shadow="0">
      <root>
        <mxCell id="0" />
        <mxCell id="1" parent="0" />
        <mxCell id="0BdCNqIJeLkUhDG_701v-1" value="gold.dim_customers" style="shape=table;startSize=30;container=1;collapsible=1;childLayout=tableLayout;fixedRows=1;rowLines=0;fontStyle=1;align=center;resizeLast=1;html=1;rounded=1;fillColor=#fff2cc;strokeColor=#d6b656;fontSize=16;" parent="1" vertex="1">
          <mxGeometry x="80" y="120" width="240" height="420" as="geometry" />
        </mxCell>
        <mxCell id="0BdCNqIJeLkUhDG_701v-2" value="" style="shape=tableRow;horizontal=0;startSize=0;swimlaneHead=0;swimlaneBody=0;fillColor=none;collapsible=0;dropTarget=0;points=[[0,0.5],[1,0.5]];portConstraint=eastwest;top=0;left=0;right=0;bottom=1;fontSize=16;" parent="0BdCNqIJeLkUhDG_701v-1" vertex="1">
          <mxGeometry y="30" width="240" height="39" as="geometry" />
        </mxCell>
        <mxCell id="0BdCNqIJeLkUhDG_701v-3" value="PK" style="shape=partialRectangle;connectable=0;fillColor=none;top=0;left=0;bottom=0;right=0;fontStyle=1;overflow=hidden;whiteSpace=wrap;html=1;fontSize=16;" parent="0BdCNqIJeLkUhDG_701v-2" vertex="1">
          <mxGeometry width="40" height="39" as="geometry">
            <mxRectangle width="40" height="39" as="alternateBounds" />
          </mxGeometry>
        </mxCell>
        <mxCell id="0BdCNqIJeLkUhDG_701v-4" value="customer_key" style="shape=partialRectangle;connectable=0;fillColor=none;top=0;left=0;bottom=0;right=0;align=left;spacingLeft=6;fontStyle=5;overflow=hidden;whiteSpace=wrap;html=1;fontSize=16;" parent="0BdCNqIJeLkUhDG_701v-2" vertex="1">
          <mxGeometry x="40" width="200" height="39" as="geometry">
            <mxRectangle width="200" height="39" as="alternateBounds" />
          </mxGeometry>
        </mxCell>
        <mxCell id="0BdCNqIJeLkUhDG_701v-5" value="" style="shape=tableRow;horizontal=0;startSize=0;swimlaneHead=0;swimlaneBody=0;fillColor=none;collapsible=0;dropTarget=0;points=[[0,0.5],[1,0.5]];portConstraint=eastwest;top=0;left=0;right=0;bottom=0;fontSize=16;" parent="0BdCNqIJeLkUhDG_701v-1" vertex="1">
          <mxGeometry y="69" width="240" height="39" as="geometry" />
        </mxCell>
        <mxCell id="0BdCNqIJeLkUhDG_701v-6" value="" style="shape=partialRectangle;connectable=0;fillColor=none;top=0;left=0;bottom=0;right=0;editable=1;overflow=hidden;whiteSpace=wrap;html=1;fontSize=16;" parent="0BdCNqIJeLkUhDG_701v-5" vertex="1">
          <mxGeometry width="40" height="39" as="geometry">
            <mxRectangle width="40" height="39" as="alternateBounds" />
          </mxGeometry>
        </mxCell>
        <mxCell id="0BdCNqIJeLkUhDG_701v-7" value="customer_id" style="shape=partialRectangle;connectable=0;fillColor=none;top=0;left=0;bottom=0;right=0;align=left;spacingLeft=6;overflow=hidden;whiteSpace=wrap;html=1;fontSize=16;" parent="0BdCNqIJeLkUhDG_701v-5" vertex="1">
          <mxGeometry x="40" width="200" height="39" as="geometry">
            <mxRectangle width="200" height="39" as="alternateBounds" />
          </mxGeometry>
        </mxCell>
        <mxCell id="0BdCNqIJeLkUhDG_701v-8" value="" style="shape=tableRow;horizontal=0;startSize=0;swimlaneHead=0;swimlaneBody=0;fillColor=none;collapsible=0;dropTarget=0;points=[[0,0.5],[1,0.5]];portConstraint=eastwest;top=0;left=0;right=0;bottom=0;fontSize=16;" parent="0BdCNqIJeLkUhDG_701v-1" vertex="1">
          <mxGeometry y="108" width="240" height="39" as="geometry" />
        </mxCell>
        <mxCell id="0BdCNqIJeLkUhDG_701v-9" value="" style="shape=partialRectangle;connectable=0;fillColor=none;top=0;left=0;bottom=0;right=0;editable=1;overflow=hidden;whiteSpace=wrap;html=1;fontSize=16;" parent="0BdCNqIJeLkUhDG_701v-8" vertex="1">
          <mxGeometry width="40" height="39" as="geometry">
            <mxRectangle width="40" height="39" as="alternateBounds" />
          </mxGeometry>
        </mxCell>
        <mxCell id="0BdCNqIJeLkUhDG_701v-10" value="customer_number" style="shape=partialRectangle;connectable=0;fillColor=none;top=0;left=0;bottom=0;right=0;align=left;spacingLeft=6;overflow=hidden;whiteSpace=wrap;html=1;fontSize=16;" parent="0BdCNqIJeLkUhDG_701v-8" vertex="1">
          <mxGeometry x="40" width="200" height="39" as="geometry">
            <mxRectangle width="200" height="39" as="alternateBounds" />
          </mxGeometry>
        </mxCell>
        <mxCell id="0BdCNqIJeLkUhDG_701v-11" value="" style="shape=tableRow;horizontal=0;startSize=0;swimlaneHead=0;swimlaneBody=0;fillColor=none;collapsible=0;dropTarget=0;points=[[0,0.5],[1,0.5]];portConstraint=eastwest;top=0;left=0;right=0;bottom=0;fontSize=16;" parent="0BdCNqIJeLkUhDG_701v-1" vertex="1">
          <mxGeometry y="147" width="240" height="39" as="geometry" />
        </mxCell>
        <mxCell id="0BdCNqIJeLkUhDG_701v-12" value="" style="shape=partialRectangle;connectable=0;fillColor=none;top=0;left=0;bottom=0;right=0;editable=1;overflow=hidden;whiteSpace=wrap;html=1;fontSize=16;" parent="0BdCNqIJeLkUhDG_701v-11" vertex="1">
          <mxGeometry width="40" height="39" as="geometry">
            <mxRectangle width="40" height="39" as="alternateBounds" />
          </mxGeometry>
        </mxCell>
        <mxCell id="0BdCNqIJeLkUhDG_701v-13" value="first_name" style="shape=partialRectangle;connectable=0;fillColor=none;top=0;left=0;bottom=0;right=0;align=left;spacingLeft=6;overflow=hidden;whiteSpace=wrap;html=1;fontSize=16;" parent="0BdCNqIJeLkUhDG_701v-11" vertex="1">
          <mxGeometry x="40" width="200" height="39" as="geometry">
            <mxRectangle width="200" height="39" as="alternateBounds" />
          </mxGeometry>
        </mxCell>
        <mxCell id="0BdCNqIJeLkUhDG_701v-27" value="" style="shape=tableRow;horizontal=0;startSize=0;swimlaneHead=0;swimlaneBody=0;fillColor=none;collapsible=0;dropTarget=0;points=[[0,0.5],[1,0.5]];portConstraint=eastwest;top=0;left=0;right=0;bottom=0;fontSize=16;" parent="0BdCNqIJeLkUhDG_701v-1" vertex="1">
          <mxGeometry y="186" width="240" height="39" as="geometry" />
        </mxCell>
        <mxCell id="0BdCNqIJeLkUhDG_701v-28" value="" style="shape=partialRectangle;connectable=0;fillColor=none;top=0;left=0;bottom=0;right=0;editable=1;overflow=hidden;whiteSpace=wrap;html=1;fontSize=16;" parent="0BdCNqIJeLkUhDG_701v-27" vertex="1">
          <mxGeometry width="40" height="39" as="geometry">
            <mxRectangle width="40" height="39" as="alternateBounds" />
          </mxGeometry>
        </mxCell>
        <mxCell id="0BdCNqIJeLkUhDG_701v-29" value="last_name" style="shape=partialRectangle;connectable=0;fillColor=none;top=0;left=0;bottom=0;right=0;align=left;spacingLeft=6;overflow=hidden;whiteSpace=wrap;html=1;fontSize=16;" parent="0BdCNqIJeLkUhDG_701v-27" vertex="1">
          <mxGeometry x="40" width="200" height="39" as="geometry">
            <mxRectangle width="200" height="39" as="alternateBounds" />
          </mxGeometry>
        </mxCell>
        <mxCell id="0BdCNqIJeLkUhDG_701v-30" value="" style="shape=tableRow;horizontal=0;startSize=0;swimlaneHead=0;swimlaneBody=0;fillColor=none;collapsible=0;dropTarget=0;points=[[0,0.5],[1,0.5]];portConstraint=eastwest;top=0;left=0;right=0;bottom=0;fontSize=16;" parent="0BdCNqIJeLkUhDG_701v-1" vertex="1">
          <mxGeometry y="225" width="240" height="39" as="geometry" />
        </mxCell>
        <mxCell id="0BdCNqIJeLkUhDG_701v-31" value="" style="shape=partialRectangle;connectable=0;fillColor=none;top=0;left=0;bottom=0;right=0;editable=1;overflow=hidden;whiteSpace=wrap;html=1;fontSize=16;" parent="0BdCNqIJeLkUhDG_701v-30" vertex="1">
          <mxGeometry width="40" height="39" as="geometry">
            <mxRectangle width="40" height="39" as="alternateBounds" />
          </mxGeometry>
        </mxCell>
        <mxCell id="0BdCNqIJeLkUhDG_701v-32" value="country" style="shape=partialRectangle;connectable=0;fillColor=none;top=0;left=0;bottom=0;right=0;align=left;spacingLeft=6;overflow=hidden;whiteSpace=wrap;html=1;fontSize=16;" parent="0BdCNqIJeLkUhDG_701v-30" vertex="1">
          <mxGeometry x="40" width="200" height="39" as="geometry">
            <mxRectangle width="200" height="39" as="alternateBounds" />
          </mxGeometry>
        </mxCell>
        <mxCell id="0BdCNqIJeLkUhDG_701v-33" value="" style="shape=tableRow;horizontal=0;startSize=0;swimlaneHead=0;swimlaneBody=0;fillColor=none;collapsible=0;dropTarget=0;points=[[0,0.5],[1,0.5]];portConstraint=eastwest;top=0;left=0;right=0;bottom=0;fontSize=16;" parent="0BdCNqIJeLkUhDG_701v-1" vertex="1">
          <mxGeometry y="264" width="240" height="39" as="geometry" />
        </mxCell>
        <mxCell id="0BdCNqIJeLkUhDG_701v-34" value="" style="shape=partialRectangle;connectable=0;fillColor=none;top=0;left=0;bottom=0;right=0;editable=1;overflow=hidden;whiteSpace=wrap;html=1;fontSize=16;" parent="0BdCNqIJeLkUhDG_701v-33" vertex="1">
          <mxGeometry width="40" height="39" as="geometry">
            <mxRectangle width="40" height="39" as="alternateBounds" />
          </mxGeometry>
        </mxCell>
        <mxCell id="0BdCNqIJeLkUhDG_701v-35" value="marital_status" style="shape=partialRectangle;connectable=0;fillColor=none;top=0;left=0;bottom=0;right=0;align=left;spacingLeft=6;overflow=hidden;whiteSpace=wrap;html=1;fontSize=16;" parent="0BdCNqIJeLkUhDG_701v-33" vertex="1">
          <mxGeometry x="40" width="200" height="39" as="geometry">
            <mxRectangle width="200" height="39" as="alternateBounds" />
          </mxGeometry>
        </mxCell>
        <mxCell id="0BdCNqIJeLkUhDG_701v-36" value="" style="shape=tableRow;horizontal=0;startSize=0;swimlaneHead=0;swimlaneBody=0;fillColor=none;collapsible=0;dropTarget=0;points=[[0,0.5],[1,0.5]];portConstraint=eastwest;top=0;left=0;right=0;bottom=0;fontSize=16;" parent="0BdCNqIJeLkUhDG_701v-1" vertex="1">
          <mxGeometry y="303" width="240" height="39" as="geometry" />
        </mxCell>
        <mxCell id="0BdCNqIJeLkUhDG_701v-37" value="" style="shape=partialRectangle;connectable=0;fillColor=none;top=0;left=0;bottom=0;right=0;editable=1;overflow=hidden;whiteSpace=wrap;html=1;fontSize=16;" parent="0BdCNqIJeLkUhDG_701v-36" vertex="1">
          <mxGeometry width="40" height="39" as="geometry">
            <mxRectangle width="40" height="39" as="alternateBounds" />
          </mxGeometry>
        </mxCell>
        <mxCell id="0BdCNqIJeLkUhDG_701v-38" value="gender" style="shape=partialRectangle;connectable=0;fillColor=none;top=0;left=0;bottom=0;right=0;align=left;spacingLeft=6;overflow=hidden;whiteSpace=wrap;html=1;fontSize=16;" parent="0BdCNqIJeLkUhDG_701v-36" vertex="1">
          <mxGeometry x="40" width="200" height="39" as="geometry">
            <mxRectangle width="200" height="39" as="alternateBounds" />
          </mxGeometry>
        </mxCell>
        <mxCell id="0BdCNqIJeLkUhDG_701v-39" value="" style="shape=tableRow;horizontal=0;startSize=0;swimlaneHead=0;swimlaneBody=0;fillColor=none;collapsible=0;dropTarget=0;points=[[0,0.5],[1,0.5]];portConstraint=eastwest;top=0;left=0;right=0;bottom=0;fontSize=16;" parent="0BdCNqIJeLkUhDG_701v-1" vertex="1">
          <mxGeometry y="342" width="240" height="39" as="geometry" />
        </mxCell>
        <mxCell id="0BdCNqIJeLkUhDG_701v-40" value="" style="shape=partialRectangle;connectable=0;fillColor=none;top=0;left=0;bottom=0;right=0;editable=1;overflow=hidden;whiteSpace=wrap;html=1;fontSize=16;" parent="0BdCNqIJeLkUhDG_701v-39" vertex="1">
          <mxGeometry width="40" height="39" as="geometry">
            <mxRectangle width="40" height="39" as="alternateBounds" />
          </mxGeometry>
        </mxCell>
        <mxCell id="0BdCNqIJeLkUhDG_701v-41" value="birthday" style="shape=partialRectangle;connectable=0;fillColor=none;top=0;left=0;bottom=0;right=0;align=left;spacingLeft=6;overflow=hidden;whiteSpace=wrap;html=1;fontSize=16;" parent="0BdCNqIJeLkUhDG_701v-39" vertex="1">
          <mxGeometry x="40" width="200" height="39" as="geometry">
            <mxRectangle width="200" height="39" as="alternateBounds" />
          </mxGeometry>
        </mxCell>
        <mxCell id="0BdCNqIJeLkUhDG_701v-42" value="" style="shape=tableRow;horizontal=0;startSize=0;swimlaneHead=0;swimlaneBody=0;fillColor=none;collapsible=0;dropTarget=0;points=[[0,0.5],[1,0.5]];portConstraint=eastwest;top=0;left=0;right=0;bottom=0;fontSize=16;" parent="0BdCNqIJeLkUhDG_701v-1" vertex="1">
          <mxGeometry y="381" width="240" height="39" as="geometry" />
        </mxCell>
        <mxCell id="0BdCNqIJeLkUhDG_701v-43" value="" style="shape=partialRectangle;connectable=0;fillColor=none;top=0;left=0;bottom=0;right=0;editable=1;overflow=hidden;whiteSpace=wrap;html=1;fontSize=16;" parent="0BdCNqIJeLkUhDG_701v-42" vertex="1">
          <mxGeometry width="40" height="39" as="geometry">
            <mxRectangle width="40" height="39" as="alternateBounds" />
          </mxGeometry>
        </mxCell>
        <mxCell id="0BdCNqIJeLkUhDG_701v-44" value="create_date" style="shape=partialRectangle;connectable=0;fillColor=none;top=0;left=0;bottom=0;right=0;align=left;spacingLeft=6;overflow=hidden;whiteSpace=wrap;html=1;fontSize=16;" parent="0BdCNqIJeLkUhDG_701v-42" vertex="1">
          <mxGeometry x="40" width="200" height="39" as="geometry">
            <mxRectangle width="200" height="39" as="alternateBounds" />
          </mxGeometry>
        </mxCell>
        <mxCell id="0BdCNqIJeLkUhDG_701v-48" value="gold.dim_products" style="shape=table;startSize=30;container=1;collapsible=1;childLayout=tableLayout;fixedRows=1;rowLines=0;fontStyle=1;align=center;resizeLast=1;html=1;rounded=1;fillColor=#fff2cc;strokeColor=#d6b656;fontSize=16;" parent="1" vertex="1">
          <mxGeometry x="800" y="120" width="240" height="459" as="geometry" />
        </mxCell>
        <mxCell id="0BdCNqIJeLkUhDG_701v-49" value="" style="shape=tableRow;horizontal=0;startSize=0;swimlaneHead=0;swimlaneBody=0;fillColor=none;collapsible=0;dropTarget=0;points=[[0,0.5],[1,0.5]];portConstraint=eastwest;top=0;left=0;right=0;bottom=1;fontSize=16;" parent="0BdCNqIJeLkUhDG_701v-48" vertex="1">
          <mxGeometry y="30" width="240" height="39" as="geometry" />
        </mxCell>
        <mxCell id="0BdCNqIJeLkUhDG_701v-50" value="PK" style="shape=partialRectangle;connectable=0;fillColor=none;top=0;left=0;bottom=0;right=0;fontStyle=1;overflow=hidden;whiteSpace=wrap;html=1;fontSize=16;" parent="0BdCNqIJeLkUhDG_701v-49" vertex="1">
          <mxGeometry width="40" height="39" as="geometry">
            <mxRectangle width="40" height="39" as="alternateBounds" />
          </mxGeometry>
        </mxCell>
        <mxCell id="0BdCNqIJeLkUhDG_701v-51" value="product_key" style="shape=partialRectangle;connectable=0;fillColor=none;top=0;left=0;bottom=0;right=0;align=left;spacingLeft=6;fontStyle=5;overflow=hidden;whiteSpace=wrap;html=1;fontSize=16;" parent="0BdCNqIJeLkUhDG_701v-49" vertex="1">
          <mxGeometry x="40" width="200" height="39" as="geometry">
            <mxRectangle width="200" height="39" as="alternateBounds" />
          </mxGeometry>
        </mxCell>
        <mxCell id="0BdCNqIJeLkUhDG_701v-52" value="" style="shape=tableRow;horizontal=0;startSize=0;swimlaneHead=0;swimlaneBody=0;fillColor=none;collapsible=0;dropTarget=0;points=[[0,0.5],[1,0.5]];portConstraint=eastwest;top=0;left=0;right=0;bottom=0;fontSize=16;" parent="0BdCNqIJeLkUhDG_701v-48" vertex="1">
          <mxGeometry y="69" width="240" height="39" as="geometry" />
        </mxCell>
        <mxCell id="0BdCNqIJeLkUhDG_701v-53" value="" style="shape=partialRectangle;connectable=0;fillColor=none;top=0;left=0;bottom=0;right=0;editable=1;overflow=hidden;whiteSpace=wrap;html=1;fontSize=16;" parent="0BdCNqIJeLkUhDG_701v-52" vertex="1">
          <mxGeometry width="40" height="39" as="geometry">
            <mxRectangle width="40" height="39" as="alternateBounds" />
          </mxGeometry>
        </mxCell>
        <mxCell id="0BdCNqIJeLkUhDG_701v-54" value="product_id" style="shape=partialRectangle;connectable=0;fillColor=none;top=0;left=0;bottom=0;right=0;align=left;spacingLeft=6;overflow=hidden;whiteSpace=wrap;html=1;fontSize=16;" parent="0BdCNqIJeLkUhDG_701v-52" vertex="1">
          <mxGeometry x="40" width="200" height="39" as="geometry">
            <mxRectangle width="200" height="39" as="alternateBounds" />
          </mxGeometry>
        </mxCell>
        <mxCell id="0BdCNqIJeLkUhDG_701v-55" value="" style="shape=tableRow;horizontal=0;startSize=0;swimlaneHead=0;swimlaneBody=0;fillColor=none;collapsible=0;dropTarget=0;points=[[0,0.5],[1,0.5]];portConstraint=eastwest;top=0;left=0;right=0;bottom=0;fontSize=16;" parent="0BdCNqIJeLkUhDG_701v-48" vertex="1">
          <mxGeometry y="108" width="240" height="39" as="geometry" />
        </mxCell>
        <mxCell id="0BdCNqIJeLkUhDG_701v-56" value="" style="shape=partialRectangle;connectable=0;fillColor=none;top=0;left=0;bottom=0;right=0;editable=1;overflow=hidden;whiteSpace=wrap;html=1;fontSize=16;" parent="0BdCNqIJeLkUhDG_701v-55" vertex="1">
          <mxGeometry width="40" height="39" as="geometry">
            <mxRectangle width="40" height="39" as="alternateBounds" />
          </mxGeometry>
        </mxCell>
        <mxCell id="0BdCNqIJeLkUhDG_701v-57" value="product_number" style="shape=partialRectangle;connectable=0;fillColor=none;top=0;left=0;bottom=0;right=0;align=left;spacingLeft=6;overflow=hidden;whiteSpace=wrap;html=1;fontSize=16;" parent="0BdCNqIJeLkUhDG_701v-55" vertex="1">
          <mxGeometry x="40" width="200" height="39" as="geometry">
            <mxRectangle width="200" height="39" as="alternateBounds" />
          </mxGeometry>
        </mxCell>
        <mxCell id="0BdCNqIJeLkUhDG_701v-58" value="" style="shape=tableRow;horizontal=0;startSize=0;swimlaneHead=0;swimlaneBody=0;fillColor=none;collapsible=0;dropTarget=0;points=[[0,0.5],[1,0.5]];portConstraint=eastwest;top=0;left=0;right=0;bottom=0;fontSize=16;" parent="0BdCNqIJeLkUhDG_701v-48" vertex="1">
          <mxGeometry y="147" width="240" height="39" as="geometry" />
        </mxCell>
        <mxCell id="0BdCNqIJeLkUhDG_701v-59" value="" style="shape=partialRectangle;connectable=0;fillColor=none;top=0;left=0;bottom=0;right=0;editable=1;overflow=hidden;whiteSpace=wrap;html=1;fontSize=16;" parent="0BdCNqIJeLkUhDG_701v-58" vertex="1">
          <mxGeometry width="40" height="39" as="geometry">
            <mxRectangle width="40" height="39" as="alternateBounds" />
          </mxGeometry>
        </mxCell>
        <mxCell id="0BdCNqIJeLkUhDG_701v-60" value="product_name" style="shape=partialRectangle;connectable=0;fillColor=none;top=0;left=0;bottom=0;right=0;align=left;spacingLeft=6;overflow=hidden;whiteSpace=wrap;html=1;fontSize=16;" parent="0BdCNqIJeLkUhDG_701v-58" vertex="1">
          <mxGeometry x="40" width="200" height="39" as="geometry">
            <mxRectangle width="200" height="39" as="alternateBounds" />
          </mxGeometry>
        </mxCell>
        <mxCell id="0BdCNqIJeLkUhDG_701v-61" value="" style="shape=tableRow;horizontal=0;startSize=0;swimlaneHead=0;swimlaneBody=0;fillColor=none;collapsible=0;dropTarget=0;points=[[0,0.5],[1,0.5]];portConstraint=eastwest;top=0;left=0;right=0;bottom=0;fontSize=16;" parent="0BdCNqIJeLkUhDG_701v-48" vertex="1">
          <mxGeometry y="186" width="240" height="39" as="geometry" />
        </mxCell>
        <mxCell id="0BdCNqIJeLkUhDG_701v-62" value="" style="shape=partialRectangle;connectable=0;fillColor=none;top=0;left=0;bottom=0;right=0;editable=1;overflow=hidden;whiteSpace=wrap;html=1;fontSize=16;" parent="0BdCNqIJeLkUhDG_701v-61" vertex="1">
          <mxGeometry width="40" height="39" as="geometry">
            <mxRectangle width="40" height="39" as="alternateBounds" />
          </mxGeometry>
        </mxCell>
        <mxCell id="0BdCNqIJeLkUhDG_701v-63" value="category_id" style="shape=partialRectangle;connectable=0;fillColor=none;top=0;left=0;bottom=0;right=0;align=left;spacingLeft=6;overflow=hidden;whiteSpace=wrap;html=1;fontSize=16;" parent="0BdCNqIJeLkUhDG_701v-61" vertex="1">
          <mxGeometry x="40" width="200" height="39" as="geometry">
            <mxRectangle width="200" height="39" as="alternateBounds" />
          </mxGeometry>
        </mxCell>
        <mxCell id="0BdCNqIJeLkUhDG_701v-64" value="" style="shape=tableRow;horizontal=0;startSize=0;swimlaneHead=0;swimlaneBody=0;fillColor=none;collapsible=0;dropTarget=0;points=[[0,0.5],[1,0.5]];portConstraint=eastwest;top=0;left=0;right=0;bottom=0;fontSize=16;" parent="0BdCNqIJeLkUhDG_701v-48" vertex="1">
          <mxGeometry y="225" width="240" height="39" as="geometry" />
        </mxCell>
        <mxCell id="0BdCNqIJeLkUhDG_701v-65" value="" style="shape=partialRectangle;connectable=0;fillColor=none;top=0;left=0;bottom=0;right=0;editable=1;overflow=hidden;whiteSpace=wrap;html=1;fontSize=16;" parent="0BdCNqIJeLkUhDG_701v-64" vertex="1">
          <mxGeometry width="40" height="39" as="geometry">
            <mxRectangle width="40" height="39" as="alternateBounds" />
          </mxGeometry>
        </mxCell>
        <mxCell id="0BdCNqIJeLkUhDG_701v-66" value="category" style="shape=partialRectangle;connectable=0;fillColor=none;top=0;left=0;bottom=0;right=0;align=left;spacingLeft=6;overflow=hidden;whiteSpace=wrap;html=1;fontSize=16;" parent="0BdCNqIJeLkUhDG_701v-64" vertex="1">
          <mxGeometry x="40" width="200" height="39" as="geometry">
            <mxRectangle width="200" height="39" as="alternateBounds" />
          </mxGeometry>
        </mxCell>
        <mxCell id="0BdCNqIJeLkUhDG_701v-67" value="" style="shape=tableRow;horizontal=0;startSize=0;swimlaneHead=0;swimlaneBody=0;fillColor=none;collapsible=0;dropTarget=0;points=[[0,0.5],[1,0.5]];portConstraint=eastwest;top=0;left=0;right=0;bottom=0;fontSize=16;" parent="0BdCNqIJeLkUhDG_701v-48" vertex="1">
          <mxGeometry y="264" width="240" height="39" as="geometry" />
        </mxCell>
        <mxCell id="0BdCNqIJeLkUhDG_701v-68" value="" style="shape=partialRectangle;connectable=0;fillColor=none;top=0;left=0;bottom=0;right=0;editable=1;overflow=hidden;whiteSpace=wrap;html=1;fontSize=16;" parent="0BdCNqIJeLkUhDG_701v-67" vertex="1">
          <mxGeometry width="40" height="39" as="geometry">
            <mxRectangle width="40" height="39" as="alternateBounds" />
          </mxGeometry>
        </mxCell>
        <mxCell id="0BdCNqIJeLkUhDG_701v-69" value="subcategory" style="shape=partialRectangle;connectable=0;fillColor=none;top=0;left=0;bottom=0;right=0;align=left;spacingLeft=6;overflow=hidden;whiteSpace=wrap;html=1;fontSize=16;" parent="0BdCNqIJeLkUhDG_701v-67" vertex="1">
          <mxGeometry x="40" width="200" height="39" as="geometry">
            <mxRectangle width="200" height="39" as="alternateBounds" />
          </mxGeometry>
        </mxCell>
        <mxCell id="0BdCNqIJeLkUhDG_701v-70" value="" style="shape=tableRow;horizontal=0;startSize=0;swimlaneHead=0;swimlaneBody=0;fillColor=none;collapsible=0;dropTarget=0;points=[[0,0.5],[1,0.5]];portConstraint=eastwest;top=0;left=0;right=0;bottom=0;fontSize=16;" parent="0BdCNqIJeLkUhDG_701v-48" vertex="1">
          <mxGeometry y="303" width="240" height="39" as="geometry" />
        </mxCell>
        <mxCell id="0BdCNqIJeLkUhDG_701v-71" value="" style="shape=partialRectangle;connectable=0;fillColor=none;top=0;left=0;bottom=0;right=0;editable=1;overflow=hidden;whiteSpace=wrap;html=1;fontSize=16;" parent="0BdCNqIJeLkUhDG_701v-70" vertex="1">
          <mxGeometry width="40" height="39" as="geometry">
            <mxRectangle width="40" height="39" as="alternateBounds" />
          </mxGeometry>
        </mxCell>
        <mxCell id="0BdCNqIJeLkUhDG_701v-72" value="maintenance" style="shape=partialRectangle;connectable=0;fillColor=none;top=0;left=0;bottom=0;right=0;align=left;spacingLeft=6;overflow=hidden;whiteSpace=wrap;html=1;fontSize=16;" parent="0BdCNqIJeLkUhDG_701v-70" vertex="1">
          <mxGeometry x="40" width="200" height="39" as="geometry">
            <mxRectangle width="200" height="39" as="alternateBounds" />
          </mxGeometry>
        </mxCell>
        <mxCell id="0BdCNqIJeLkUhDG_701v-73" value="" style="shape=tableRow;horizontal=0;startSize=0;swimlaneHead=0;swimlaneBody=0;fillColor=none;collapsible=0;dropTarget=0;points=[[0,0.5],[1,0.5]];portConstraint=eastwest;top=0;left=0;right=0;bottom=0;fontSize=16;" parent="0BdCNqIJeLkUhDG_701v-48" vertex="1">
          <mxGeometry y="342" width="240" height="39" as="geometry" />
        </mxCell>
        <mxCell id="0BdCNqIJeLkUhDG_701v-74" value="" style="shape=partialRectangle;connectable=0;fillColor=none;top=0;left=0;bottom=0;right=0;editable=1;overflow=hidden;whiteSpace=wrap;html=1;fontSize=16;" parent="0BdCNqIJeLkUhDG_701v-73" vertex="1">
          <mxGeometry width="40" height="39" as="geometry">
            <mxRectangle width="40" height="39" as="alternateBounds" />
          </mxGeometry>
        </mxCell>
        <mxCell id="0BdCNqIJeLkUhDG_701v-75" value="cost" style="shape=partialRectangle;connectable=0;fillColor=none;top=0;left=0;bottom=0;right=0;align=left;spacingLeft=6;overflow=hidden;whiteSpace=wrap;html=1;fontSize=16;" parent="0BdCNqIJeLkUhDG_701v-73" vertex="1">
          <mxGeometry x="40" width="200" height="39" as="geometry">
            <mxRectangle width="200" height="39" as="alternateBounds" />
          </mxGeometry>
        </mxCell>
        <mxCell id="0BdCNqIJeLkUhDG_701v-76" value="" style="shape=tableRow;horizontal=0;startSize=0;swimlaneHead=0;swimlaneBody=0;fillColor=none;collapsible=0;dropTarget=0;points=[[0,0.5],[1,0.5]];portConstraint=eastwest;top=0;left=0;right=0;bottom=0;fontSize=16;" parent="0BdCNqIJeLkUhDG_701v-48" vertex="1">
          <mxGeometry y="381" width="240" height="39" as="geometry" />
        </mxCell>
        <mxCell id="0BdCNqIJeLkUhDG_701v-77" value="" style="shape=partialRectangle;connectable=0;fillColor=none;top=0;left=0;bottom=0;right=0;editable=1;overflow=hidden;whiteSpace=wrap;html=1;fontSize=16;" parent="0BdCNqIJeLkUhDG_701v-76" vertex="1">
          <mxGeometry width="40" height="39" as="geometry">
            <mxRectangle width="40" height="39" as="alternateBounds" />
          </mxGeometry>
        </mxCell>
        <mxCell id="0BdCNqIJeLkUhDG_701v-78" value="product_line" style="shape=partialRectangle;connectable=0;fillColor=none;top=0;left=0;bottom=0;right=0;align=left;spacingLeft=6;overflow=hidden;whiteSpace=wrap;html=1;fontSize=16;" parent="0BdCNqIJeLkUhDG_701v-76" vertex="1">
          <mxGeometry x="40" width="200" height="39" as="geometry">
            <mxRectangle width="200" height="39" as="alternateBounds" />
          </mxGeometry>
        </mxCell>
        <mxCell id="0BdCNqIJeLkUhDG_701v-79" value="" style="shape=tableRow;horizontal=0;startSize=0;swimlaneHead=0;swimlaneBody=0;fillColor=none;collapsible=0;dropTarget=0;points=[[0,0.5],[1,0.5]];portConstraint=eastwest;top=0;left=0;right=0;bottom=0;fontSize=16;" parent="0BdCNqIJeLkUhDG_701v-48" vertex="1">
          <mxGeometry y="420" width="240" height="39" as="geometry" />
        </mxCell>
        <mxCell id="0BdCNqIJeLkUhDG_701v-80" value="" style="shape=partialRectangle;connectable=0;fillColor=none;top=0;left=0;bottom=0;right=0;editable=1;overflow=hidden;whiteSpace=wrap;html=1;fontSize=16;" parent="0BdCNqIJeLkUhDG_701v-79" vertex="1">
          <mxGeometry width="40" height="39" as="geometry">
            <mxRectangle width="40" height="39" as="alternateBounds" />
          </mxGeometry>
        </mxCell>
        <mxCell id="0BdCNqIJeLkUhDG_701v-81" value="start_date" style="shape=partialRectangle;connectable=0;fillColor=none;top=0;left=0;bottom=0;right=0;align=left;spacingLeft=6;overflow=hidden;whiteSpace=wrap;html=1;fontSize=16;" parent="0BdCNqIJeLkUhDG_701v-79" vertex="1">
          <mxGeometry x="40" width="200" height="39" as="geometry">
            <mxRectangle width="200" height="39" as="alternateBounds" />
          </mxGeometry>
        </mxCell>
        <mxCell id="0BdCNqIJeLkUhDG_701v-82" value="gold.fact_sales" style="shape=table;startSize=30;container=1;collapsible=1;childLayout=tableLayout;fixedRows=1;rowLines=0;fontStyle=1;align=center;resizeLast=1;html=1;rounded=1;fillColor=#dae8fc;strokeColor=#6c8ebf;fontSize=16;" parent="1" vertex="1">
          <mxGeometry x="440" y="120" width="240" height="381" as="geometry" />
        </mxCell>
        <mxCell id="0BdCNqIJeLkUhDG_701v-86" value="" style="shape=tableRow;horizontal=0;startSize=0;swimlaneHead=0;swimlaneBody=0;fillColor=none;collapsible=0;dropTarget=0;points=[[0,0.5],[1,0.5]];portConstraint=eastwest;top=0;left=0;right=0;bottom=0;fontSize=16;" parent="0BdCNqIJeLkUhDG_701v-82" vertex="1">
          <mxGeometry y="30" width="240" height="39" as="geometry" />
        </mxCell>
        <mxCell id="0BdCNqIJeLkUhDG_701v-87" value="" style="shape=partialRectangle;connectable=0;fillColor=none;top=0;left=0;bottom=0;right=0;editable=1;overflow=hidden;whiteSpace=wrap;html=1;fontSize=16;" parent="0BdCNqIJeLkUhDG_701v-86" vertex="1">
          <mxGeometry width="40" height="39" as="geometry">
            <mxRectangle width="40" height="39" as="alternateBounds" />
          </mxGeometry>
        </mxCell>
        <mxCell id="0BdCNqIJeLkUhDG_701v-88" value="order_number" style="shape=partialRectangle;connectable=0;fillColor=none;top=0;left=0;bottom=0;right=0;align=left;spacingLeft=6;overflow=hidden;whiteSpace=wrap;html=1;fontSize=16;" parent="0BdCNqIJeLkUhDG_701v-86" vertex="1">
          <mxGeometry x="40" width="200" height="39" as="geometry">
            <mxRectangle width="200" height="39" as="alternateBounds" />
          </mxGeometry>
        </mxCell>
        <mxCell id="0BdCNqIJeLkUhDG_701v-89" value="" style="shape=tableRow;horizontal=0;startSize=0;swimlaneHead=0;swimlaneBody=0;fillColor=none;collapsible=0;dropTarget=0;points=[[0,0.5],[1,0.5]];portConstraint=eastwest;top=0;left=0;right=0;bottom=0;fontSize=16;" parent="0BdCNqIJeLkUhDG_701v-82" vertex="1">
          <mxGeometry y="69" width="240" height="39" as="geometry" />
        </mxCell>
        <mxCell id="0BdCNqIJeLkUhDG_701v-90" value="FK1" style="shape=partialRectangle;connectable=0;fillColor=none;top=0;left=0;bottom=0;right=0;editable=1;overflow=hidden;whiteSpace=wrap;html=1;fontSize=16;" parent="0BdCNqIJeLkUhDG_701v-89" vertex="1">
          <mxGeometry width="40" height="39" as="geometry">
            <mxRectangle width="40" height="39" as="alternateBounds" />
          </mxGeometry>
        </mxCell>
        <mxCell id="0BdCNqIJeLkUhDG_701v-91" value="product_key" style="shape=partialRectangle;connectable=0;fillColor=none;top=0;left=0;bottom=0;right=0;align=left;spacingLeft=6;overflow=hidden;whiteSpace=wrap;html=1;fontSize=16;" parent="0BdCNqIJeLkUhDG_701v-89" vertex="1">
          <mxGeometry x="40" width="200" height="39" as="geometry">
            <mxRectangle width="200" height="39" as="alternateBounds" />
          </mxGeometry>
        </mxCell>
        <mxCell id="0BdCNqIJeLkUhDG_701v-92" value="" style="shape=tableRow;horizontal=0;startSize=0;swimlaneHead=0;swimlaneBody=0;fillColor=none;collapsible=0;dropTarget=0;points=[[0,0.5],[1,0.5]];portConstraint=eastwest;top=0;left=0;right=0;bottom=0;fontSize=16;" parent="0BdCNqIJeLkUhDG_701v-82" vertex="1">
          <mxGeometry y="108" width="240" height="39" as="geometry" />
        </mxCell>
        <mxCell id="0BdCNqIJeLkUhDG_701v-93" value="&lt;span style=&quot;color: rgb(0, 0, 0); font-family: Helvetica; font-size: 16px; font-style: normal; font-variant-ligatures: normal; font-variant-caps: normal; font-weight: 400; letter-spacing: normal; orphans: 2; text-align: center; text-indent: 0px; text-transform: none; widows: 2; word-spacing: 0px; -webkit-text-stroke-width: 0px; white-space: normal; background-color: rgb(251, 251, 251); text-decoration-thickness: initial; text-decoration-style: initial; text-decoration-color: initial; float: none; display: inline !important;&quot;&gt;FK2&lt;/span&gt;" style="shape=partialRectangle;connectable=0;fillColor=none;top=0;left=0;bottom=0;right=0;editable=1;overflow=hidden;whiteSpace=wrap;html=1;fontSize=16;" parent="0BdCNqIJeLkUhDG_701v-92" vertex="1">
          <mxGeometry width="40" height="39" as="geometry">
            <mxRectangle width="40" height="39" as="alternateBounds" />
          </mxGeometry>
        </mxCell>
        <mxCell id="0BdCNqIJeLkUhDG_701v-94" value="customer_key" style="shape=partialRectangle;connectable=0;fillColor=none;top=0;left=0;bottom=0;right=0;align=left;spacingLeft=6;overflow=hidden;whiteSpace=wrap;html=1;fontSize=16;" parent="0BdCNqIJeLkUhDG_701v-92" vertex="1">
          <mxGeometry x="40" width="200" height="39" as="geometry">
            <mxRectangle width="200" height="39" as="alternateBounds" />
          </mxGeometry>
        </mxCell>
        <mxCell id="0BdCNqIJeLkUhDG_701v-95" value="" style="shape=tableRow;horizontal=0;startSize=0;swimlaneHead=0;swimlaneBody=0;fillColor=none;collapsible=0;dropTarget=0;points=[[0,0.5],[1,0.5]];portConstraint=eastwest;top=0;left=0;right=0;bottom=0;fontSize=16;" parent="0BdCNqIJeLkUhDG_701v-82" vertex="1">
          <mxGeometry y="147" width="240" height="39" as="geometry" />
        </mxCell>
        <mxCell id="0BdCNqIJeLkUhDG_701v-96" value="" style="shape=partialRectangle;connectable=0;fillColor=none;top=0;left=0;bottom=0;right=0;editable=1;overflow=hidden;whiteSpace=wrap;html=1;fontSize=16;" parent="0BdCNqIJeLkUhDG_701v-95" vertex="1">
          <mxGeometry width="40" height="39" as="geometry">
            <mxRectangle width="40" height="39" as="alternateBounds" />
          </mxGeometry>
        </mxCell>
        <mxCell id="0BdCNqIJeLkUhDG_701v-97" value="order_date" style="shape=partialRectangle;connectable=0;fillColor=none;top=0;left=0;bottom=0;right=0;align=left;spacingLeft=6;overflow=hidden;whiteSpace=wrap;html=1;fontSize=16;" parent="0BdCNqIJeLkUhDG_701v-95" vertex="1">
          <mxGeometry x="40" width="200" height="39" as="geometry">
            <mxRectangle width="200" height="39" as="alternateBounds" />
          </mxGeometry>
        </mxCell>
        <mxCell id="0BdCNqIJeLkUhDG_701v-98" value="" style="shape=tableRow;horizontal=0;startSize=0;swimlaneHead=0;swimlaneBody=0;fillColor=none;collapsible=0;dropTarget=0;points=[[0,0.5],[1,0.5]];portConstraint=eastwest;top=0;left=0;right=0;bottom=0;fontSize=16;" parent="0BdCNqIJeLkUhDG_701v-82" vertex="1">
          <mxGeometry y="186" width="240" height="39" as="geometry" />
        </mxCell>
        <mxCell id="0BdCNqIJeLkUhDG_701v-99" value="" style="shape=partialRectangle;connectable=0;fillColor=none;top=0;left=0;bottom=0;right=0;editable=1;overflow=hidden;whiteSpace=wrap;html=1;fontSize=16;" parent="0BdCNqIJeLkUhDG_701v-98" vertex="1">
          <mxGeometry width="40" height="39" as="geometry">
            <mxRectangle width="40" height="39" as="alternateBounds" />
          </mxGeometry>
        </mxCell>
        <mxCell id="0BdCNqIJeLkUhDG_701v-100" value="shipping_date" style="shape=partialRectangle;connectable=0;fillColor=none;top=0;left=0;bottom=0;right=0;align=left;spacingLeft=6;overflow=hidden;whiteSpace=wrap;html=1;fontSize=16;" parent="0BdCNqIJeLkUhDG_701v-98" vertex="1">
          <mxGeometry x="40" width="200" height="39" as="geometry">
            <mxRectangle width="200" height="39" as="alternateBounds" />
          </mxGeometry>
        </mxCell>
        <mxCell id="0BdCNqIJeLkUhDG_701v-101" value="" style="shape=tableRow;horizontal=0;startSize=0;swimlaneHead=0;swimlaneBody=0;fillColor=none;collapsible=0;dropTarget=0;points=[[0,0.5],[1,0.5]];portConstraint=eastwest;top=0;left=0;right=0;bottom=0;fontSize=16;" parent="0BdCNqIJeLkUhDG_701v-82" vertex="1">
          <mxGeometry y="225" width="240" height="39" as="geometry" />
        </mxCell>
        <mxCell id="0BdCNqIJeLkUhDG_701v-102" value="" style="shape=partialRectangle;connectable=0;fillColor=none;top=0;left=0;bottom=0;right=0;editable=1;overflow=hidden;whiteSpace=wrap;html=1;fontSize=16;" parent="0BdCNqIJeLkUhDG_701v-101" vertex="1">
          <mxGeometry width="40" height="39" as="geometry">
            <mxRectangle width="40" height="39" as="alternateBounds" />
          </mxGeometry>
        </mxCell>
        <mxCell id="0BdCNqIJeLkUhDG_701v-103" value="due_date" style="shape=partialRectangle;connectable=0;fillColor=none;top=0;left=0;bottom=0;right=0;align=left;spacingLeft=6;overflow=hidden;whiteSpace=wrap;html=1;fontSize=16;" parent="0BdCNqIJeLkUhDG_701v-101" vertex="1">
          <mxGeometry x="40" width="200" height="39" as="geometry">
            <mxRectangle width="200" height="39" as="alternateBounds" />
          </mxGeometry>
        </mxCell>
        <mxCell id="0BdCNqIJeLkUhDG_701v-104" value="" style="shape=tableRow;horizontal=0;startSize=0;swimlaneHead=0;swimlaneBody=0;fillColor=none;collapsible=0;dropTarget=0;points=[[0,0.5],[1,0.5]];portConstraint=eastwest;top=0;left=0;right=0;bottom=0;fontSize=16;" parent="0BdCNqIJeLkUhDG_701v-82" vertex="1">
          <mxGeometry y="264" width="240" height="39" as="geometry" />
        </mxCell>
        <mxCell id="0BdCNqIJeLkUhDG_701v-105" value="" style="shape=partialRectangle;connectable=0;fillColor=none;top=0;left=0;bottom=0;right=0;editable=1;overflow=hidden;whiteSpace=wrap;html=1;fontSize=16;" parent="0BdCNqIJeLkUhDG_701v-104" vertex="1">
          <mxGeometry width="40" height="39" as="geometry">
            <mxRectangle width="40" height="39" as="alternateBounds" />
          </mxGeometry>
        </mxCell>
        <mxCell id="0BdCNqIJeLkUhDG_701v-106" value="sales_amount" style="shape=partialRectangle;connectable=0;fillColor=none;top=0;left=0;bottom=0;right=0;align=left;spacingLeft=6;overflow=hidden;whiteSpace=wrap;html=1;fontSize=16;" parent="0BdCNqIJeLkUhDG_701v-104" vertex="1">
          <mxGeometry x="40" width="200" height="39" as="geometry">
            <mxRectangle width="200" height="39" as="alternateBounds" />
          </mxGeometry>
        </mxCell>
        <mxCell id="0BdCNqIJeLkUhDG_701v-107" value="" style="shape=tableRow;horizontal=0;startSize=0;swimlaneHead=0;swimlaneBody=0;fillColor=none;collapsible=0;dropTarget=0;points=[[0,0.5],[1,0.5]];portConstraint=eastwest;top=0;left=0;right=0;bottom=0;fontSize=16;" parent="0BdCNqIJeLkUhDG_701v-82" vertex="1">
          <mxGeometry y="303" width="240" height="39" as="geometry" />
        </mxCell>
        <mxCell id="0BdCNqIJeLkUhDG_701v-108" value="" style="shape=partialRectangle;connectable=0;fillColor=none;top=0;left=0;bottom=0;right=0;editable=1;overflow=hidden;whiteSpace=wrap;html=1;fontSize=16;" parent="0BdCNqIJeLkUhDG_701v-107" vertex="1">
          <mxGeometry width="40" height="39" as="geometry">
            <mxRectangle width="40" height="39" as="alternateBounds" />
          </mxGeometry>
        </mxCell>
        <mxCell id="0BdCNqIJeLkUhDG_701v-109" value="quantity" style="shape=partialRectangle;connectable=0;fillColor=none;top=0;left=0;bottom=0;right=0;align=left;spacingLeft=6;overflow=hidden;whiteSpace=wrap;html=1;fontSize=16;" parent="0BdCNqIJeLkUhDG_701v-107" vertex="1">
          <mxGeometry x="40" width="200" height="39" as="geometry">
            <mxRectangle width="200" height="39" as="alternateBounds" />
          </mxGeometry>
        </mxCell>
        <mxCell id="0BdCNqIJeLkUhDG_701v-110" value="" style="shape=tableRow;horizontal=0;startSize=0;swimlaneHead=0;swimlaneBody=0;fillColor=none;collapsible=0;dropTarget=0;points=[[0,0.5],[1,0.5]];portConstraint=eastwest;top=0;left=0;right=0;bottom=0;fontSize=16;" parent="0BdCNqIJeLkUhDG_701v-82" vertex="1">
          <mxGeometry y="342" width="240" height="39" as="geometry" />
        </mxCell>
        <mxCell id="0BdCNqIJeLkUhDG_701v-111" value="" style="shape=partialRectangle;connectable=0;fillColor=none;top=0;left=0;bottom=0;right=0;editable=1;overflow=hidden;whiteSpace=wrap;html=1;fontSize=16;" parent="0BdCNqIJeLkUhDG_701v-110" vertex="1">
          <mxGeometry width="40" height="39" as="geometry">
            <mxRectangle width="40" height="39" as="alternateBounds" />
          </mxGeometry>
        </mxCell>
        <mxCell id="0BdCNqIJeLkUhDG_701v-112" value="price" style="shape=partialRectangle;connectable=0;fillColor=none;top=0;left=0;bottom=0;right=0;align=left;spacingLeft=6;overflow=hidden;whiteSpace=wrap;html=1;fontSize=16;" parent="0BdCNqIJeLkUhDG_701v-110" vertex="1">
          <mxGeometry x="40" width="200" height="39" as="geometry">
            <mxRectangle width="200" height="39" as="alternateBounds" />
          </mxGeometry>
        </mxCell>
        <mxCell id="0BdCNqIJeLkUhDG_701v-117" value="" style="edgeStyle=entityRelationEdgeStyle;fontSize=12;html=1;endArrow=ERzeroToMany;startArrow=ERmandOne;rounded=0;strokeWidth=2;endSize=8;startSize=8;" parent="1" source="0BdCNqIJeLkUhDG_701v-2" target="0BdCNqIJeLkUhDG_701v-92" edge="1">
          <mxGeometry width="100" height="100" relative="1" as="geometry">
            <mxPoint x="380" y="600" as="sourcePoint" />
            <mxPoint x="480" y="500" as="targetPoint" />
          </mxGeometry>
        </mxCell>
        <mxCell id="0BdCNqIJeLkUhDG_701v-118" value="" style="edgeStyle=entityRelationEdgeStyle;fontSize=12;html=1;endArrow=ERzeroToMany;startArrow=ERmandOne;rounded=0;strokeWidth=2;endSize=8;startSize=8;" parent="1" source="0BdCNqIJeLkUhDG_701v-49" target="0BdCNqIJeLkUhDG_701v-89" edge="1">
          <mxGeometry width="100" height="100" relative="1" as="geometry">
            <mxPoint x="620" y="660" as="sourcePoint" />
            <mxPoint x="720" y="560" as="targetPoint" />
          </mxGeometry>
        </mxCell>
        <mxCell id="0BdCNqIJeLkUhDG_701v-119" value="&lt;h1 style=&quot;margin-top: 0px;&quot;&gt;&lt;span style=&quot;font-size: 20px;&quot;&gt;Sales Calculation&lt;/span&gt;&lt;/h1&gt;&lt;p&gt;Sales = Quantity * Price&lt;/p&gt;" style="text;html=1;whiteSpace=wrap;overflow=hidden;rounded=0;" parent="1" vertex="1">
          <mxGeometry x="580" y="520" width="180" height="80" as="geometry" />
        </mxCell>
        <mxCell id="0BdCNqIJeLkUhDG_701v-120" value="" style="endArrow=none;dashed=1;html=1;dashPattern=1 3;strokeWidth=2;rounded=0;entryX=0;entryY=0;entryDx=0;entryDy=0;" parent="1" source="0BdCNqIJeLkUhDG_701v-104" target="0BdCNqIJeLkUhDG_701v-119" edge="1">
          <mxGeometry width="50" height="50" relative="1" as="geometry">
            <mxPoint x="470" y="600" as="sourcePoint" />
            <mxPoint x="520" y="550" as="targetPoint" />
          </mxGeometry>
        </mxCell>
        <mxCell id="0BdCNqIJeLkUhDG_701v-121" value="&lt;font style=&quot;font-size: 24px;&quot;&gt;&lt;b&gt;Sales Data Model&lt;/b&gt; (Start Schema)&lt;/font&gt;" style="text;html=1;align=center;verticalAlign=middle;whiteSpace=wrap;rounded=0;" parent="1" vertex="1">
          <mxGeometry x="40" y="40" width="370" height="30" as="geometry" />
        </mxCell>
      </root>
    </mxGraphModel>
  </diagram>
</mxfile>
